<?xml version="1.0" encoding="utf-8"?>
<!-- Generator: Adobe Illustrator 16.2.1, SVG Export Plug-In . SVG Version: 6.00 Build 0)  -->
<!DOCTYPE svg PUBLIC "-//W3C//DTD SVG 1.1//EN" "http://www.w3.org/Graphics/SVG/1.1/DTD/svg11.dtd">
<svg version="1.1" xmlns="http://www.w3.org/2000/svg" xmlns:xlink="http://www.w3.org/1999/xlink" x="0px" y="0px" width="122.5px"
	 height="309.399px" viewBox="0 0 122.5 309.399" enable-background="new 0 0 122.5 309.399" xml:space="preserve">
<g id="Logo_Indigo_xA0_Image_1_">
	<g>
		<path fill="#425873" d="M124,863.5c-170,0-340,0-510,0c0-99.333,0-198.667,0-298c1.103,5.518,2.205,11.035,3.42,17.122
			c0.689-0.986,1.36-1.5,1.349-1.997c-0.205-8.575-0.924-17.162-0.652-25.718c0.33-10.367,1.13-20.75,2.386-31.046
			c1.061-8.704,3.514-17.08,8.283-24.702c8.282-13.239,20.712-22.214,32.874-31.146c5.103-3.748,6.521-8.451,8.718-13.495
			c-6.608,4.62-12.398,10.224-18.973,14.666c-5.353,3.617-8.438,9.241-13.749,12.999c-4.336,3.069-6.875,8.876-10.229,13.367
			c-4.281,5.733-5.838,13.58-8.2,20.639c-1.469,4.392-2.209,9.023-3.367,13.524c-0.503,1.959-1.233,3.859-1.861,5.786
			c0-175.333,0-350.667,0-526c280.334,0,560.667,0,841,0c0,284.667,0,569.333,0,854c-110,0-220,0-330,0
			c1.5-0.667,2.996-1.899,4.5-1.909c10.844-0.071,18.413-6.312,22.929-14.812c3.216-6.055,5.513-12.151,11.126-16.626
			c1.816-1.448,4.305-4.797,0.928-7.567c-3.373-2.766-5.703-0.007-8.049,2.035c-0.119,0.104-0.188,0.274-0.256,0.426
			c-2.627,5.926-5.346,11.813-7.82,17.803c-0.782,1.894-0.213,5.04-1.459,5.924c-4.634,3.284-10.229,8.752-14.606,8.052
			c-7.02-1.123-14.729,4.778-21.065-2.299c0.125,1.233,0.45,1.89,0.831,2.512C114.785,861.501,119.561,862.191,124,863.5z
			 M-232.911,536.621c-0.847,0.283-1.965,0.315-2.499,0.89c-3.918,4.216-0.686,8.513,0.606,12.329
			c1.518,4.482,4.078,8.818,7.054,12.52c1.589,1.976,5.008,2.479,7.601,3.648c-0.457-1.764-1.212-2.668-2.17-3.222
			c-5.408-3.13-8.378-7.594-8.761-13.991c-0.247-4.13-1.288-8.213-1.976-12.319c3.085-2.231,6.169-4.463,9.312-6.735
			C-230.618,530.002-232.844,531.688-232.911,536.621z M138.702,476.248c-11.023,3.069-21.038,7.875-27.685,17.644
			c-4.288,6.304-8.201,12.887-11.902,19.556c-1.6,2.882-2.239,6.297-3.314,9.47c0.479,0.202,0.959,0.404,1.439,0.607
			c5.572-7.606,11.495-14.985,16.627-22.878c6.169-9.487,12.608-18.35,24.15-21.799c0.419-0.126,0.383-1.774,0.579-2.694
			c4.596-0.913,9.294-1.484,13.761-2.827c5.5-1.652,10.811-3.938,16.194-5.972c1.495-0.565,2.962-1.206,4.441-1.812
			c-9.426,0.24-18.412,1.831-26.666,6.187C143.718,473.106,141.24,474.734,138.702,476.248z M23.478,696.017
			c-1.875-1.228-3.774-2.418-5.619-3.689c-3.003-2.07-5.97-4.193-8.952-6.294c0.459,6.356,5.221,8.123,9.279,10.34
			c1.307,0.713,3.502-0.199,5.291-0.368c1.037,1.543,1.752,3.882,3.18,4.46c2.771,1.122,6.24,2.331,8.896,1.601
			c8.846-2.434,17.214,0.919,25.794,1.256c9.569,0.376,16.865-3.707,23.388-10.012c0.409-0.396,1.111-0.754,1.176-1.202
			c0.438-3.063,0.87-6.14,1.051-9.226c0.158-2.682,0.011-2.69-4.776-5.375c0.176,1.532,0.76,3.181,0.465,4.654
			c-1.196,5.98-14.562,14.986-20.671,15.036c-7.224,0.06-14.636,0.27-21.604,1.934C33.876,700.683,28.434,700.823,23.478,696.017z
			 M-176.022,177.786c7.316-3.489,8.13-9.376,10.151-14.849c4.294-11.631,4.588-23.287,1.8-35.153
			c-1.526-6.495-4.354-12.339-11.44-14.159c-5.045-1.296-10.302-2.206-15.496-2.391c-10.624-0.377-20.571,2.762-28.461,9.747
			c-10.783,9.545-18.694,21.47-24.164,34.824c-6.316,15.423-8.449,31.207-2.322,47.246c4.051,10.607,10.132,19.829,22.636,20.475
			c5.948,0.308,11.717,2.59,18.253,0.317c7.163-2.49,17.757-12.651,18.034-20.461c0.021-0.576-0.25-1.163-0.548-2.443
			c-4.13,2.682-7.576,6.402-11.606,7.209c-7.104,1.423-13.628,5.558-21.933,2.779c-5.383-1.801-9.918-3.534-12.238-8.418
			c-4.399-9.261-5.943-18.999-4.796-29.436c1.708-15.545,4.251-30.586,15.206-42.702c4.789-5.296,9.852-10.399,17.233-11.92
			c4.158-0.856,8.595-2.38,12.554-1.661c4.893,0.888,11.452,2.491,13.734,6.061c7.552,11.812,5.991,25.501,4.82,38.823
			C-175.053,166.776-175.502,171.878-176.022,177.786z M-302.221,244.518c-2.149,0.2-3.719-0.129-4.284,0.478
			c-3.443,3.699-6.678,7.594-9.937,11.461c-1.05,1.247-1.999,2.584-2.931,3.924c-6.545,9.4-13.362,18.629-19.512,28.282
			c-4.52,7.094-7.491,15.24-12.427,21.983c-3.355,4.585-4.562,9.896-4.124,14.232c1.034,10.224,3.909,20.3,6.489,30.319
			c3.436,13.344,7.172,26.615,11.039,39.842c1.628,5.569,3.619,11.079,5.979,16.378c3.125,7.015,6.723,13.821,10.221,20.665
			c1.885,3.688,6.594,3.934,9.827,1.429c3.153-2.442,6.762-4.665,10.528-5.869c7.725-2.472,15.783-3.901,23.514-6.356
			c3.802-1.208,7.782-3.151,10.522-5.912c1.608-1.62,2.07-6.021,1.046-8.252c-1.846-4.025-7.432-4.895-11.085-2.718
			c-6.86,4.087-12.108,10.259-19.936,13.385c-6.088,2.432-10.853,8.043-16.542,11.721c-1.203,0.777-4.303-0.17-5.736-1.314
			c-1.332-1.062-1.238-3.743-2.405-5.207c-6.83-8.564-9.971-18.771-12.934-28.995c-0.919-3.172-5.983-5.591-2.185-9.814
			c-0.878-0.496-1.871-0.87-2.588-1.539c-0.368-0.344-0.21-1.222-0.352-1.844c-2.644-11.569-6.113-23.029-7.65-34.743
			c-0.958-7.299-0.438-15.493,2.013-22.36c3.071-8.611,7.322-16.728,7.705-26.11c0.031-0.764,0.352-1.574,0.73-2.256
			c4.059-7.303,8.029-14.659,12.29-21.843c2.744-4.627,5.657-9.207,8.988-13.417C-311.938,254.986-307.395,250.322-302.221,244.518z
			 M-382.938,747.534c3.85,1.544,7.462-1.662,11.007-3.526c16.287-8.563,31.673-18.809,49.385-24.656
			c7.794-2.573,15.058-6.756,22.562-10.207c-0.221-0.477-0.441-0.952-0.662-1.429c-20.962,7.286-41.924,14.571-62.886,21.856
			c-0.216-0.502-0.433-1.005-0.65-1.507c0.652-0.503,1.304-1.006,1.353-1.043c-0.78-2.41-1.812-4.531-2.129-6.754
			c-1.775-12.452-3.315-24.938-5.118-37.386c-0.232-1.604-1.524-3.053-2.326-4.574c-0.724,0.135-1.448,0.27-2.172,0.404
			c-1.471,12.211-2.932,24.423-4.415,36.632C-380.264,725.842-381.563,736.335-382.938,747.534z M201.147,790.551
			c4.226,2.238,4.684-2.713,6.794-4.562c7.743-6.786,12.724-15.152,14.577-25.437c1.087-6.025-1.38-10.592-7.474-12.082
			c-2.599-0.635-5.256-1.027-8.036-1.559c5.49-5.451,4.979-11.277,1.123-13.83c-7.541-4.994-12.722-11.865-16.202-20.188
			c-1.633-3.903-3.827-7.571-5.768-11.346c-0.555,0.302-1.11,0.604-1.666,0.906c2.508,12.727,10.198,22.842,17.996,32.94
			c-2.211,1.604-3.817,2.982-5.615,4.035c-9.069,5.312-18.45,10.145-27.208,15.923c-6.81,4.494-12.789,10.23-19.284,15.225
			c-4.261,3.276-4.912,7.616-4.251,12.411c0.069,0.506,1.559,0.816,2.389,1.218c-0.786-4.48,3.118-2.794,4.882-4.042
			c3.279-2.318,5.739-5.779,8.602-8.704c4.871-4.977,9.28-10.594,14.808-14.696c8.355-6.201,18.575-8.087,28.996-9.737
			c-1.459,3.577,0.06,4.436,3.439,4.561c5.913,0.219,8.773,4.104,6.359,9.585C211.235,771.099,206.062,780.674,201.147,790.551z
			 M-82.226,316.43c0.089,0.022,0.177,0.045,0.265,0.066c0-4.126,0.188-8.263-0.046-12.375c-0.323-5.675-0.699-11.37-1.532-16.985
			c-1.205-8.123-1.583-16.705-4.66-24.118c-2.835-6.831-7.848-13.149-14.52-17.48c-2.878-1.869-5.441-4.275-8.441-5.893
			c-5.229-2.818-10.77-5.052-16.025-7.821c-9.055-4.771-17.867-10.013-27.024-14.567c-5.098-2.535-10.687-4.083-16.538-6.255
			c0.128,1.898-0.264,3.609,0.361,4.155c5.121,4.468,10.181,9.075,15.733,12.966c14.188,9.94,29.575,17.822,45.126,25.392
			c4.43,2.155,9.686,3.769,12.769,7.229c3.61,4.052,6.385,9.604,7.542,14.937C-86.294,289.134-84.482,302.83-82.226,316.43z
			 M-121.805,645.473c-0.426-0.416-0.854-0.832-1.28-1.248c-4.321,3.239-8.94,6.157-12.874,9.814
			c-3.305,3.073-5.802,7.012-8.672,10.556c-2.64,3.261-5.921,2.418-8.251,0.249c-2.548-2.37-4.497-5.535-6.195-8.634
			c-2.554-4.66-4.617-9.587-7.018-14.335c-0.309-0.611-1.393-0.831-2.118-1.232c-0.255,0.718-0.791,1.464-0.723,2.149
			c0.674,6.77,1.001,13.62,2.356,20.259c0.843,4.132-1.231,5.815-3.972,7.12c-1.987,0.946-4.421,1.113-6.682,1.297
			c-13.052,1.06-26.113,2.008-39.169,3.025c-2.837,0.222-5.664,0.57-8.495,0.86c-0.445,0.735-0.891,1.471-1.336,2.206
			c1.59,0.971,3.185,2.772,4.77,2.765c5.998-0.028,11.993-0.627,17.987-1.045c6.924-0.482,13.846-0.999,20.768-1.501
			c0.499-1.212,1.983-2.482,2.576-2.152c3.857,2.15,7.513-0.162,11.235-0.143c3.524,0.019,7.079,0.279,10.565-0.086
			c3.798-0.396,8.527-0.207,11.094-2.364c5.852-4.915,10.651-11.09,15.838-16.79C-128.164,652.688-125,649.065-121.805,645.473z
			 M224.294,626.799c2.156-0.521,3.104-0.609,3.935-0.971c8.308-3.616,16.306-8.47,24.975-10.572
			c7.863-1.908,14.33-5.543,20.755-9.817c4.688-3.118,5.122-10.139,1.212-14.358c-2.512-2.71-5.829-5.33-6.884-8.604
			c-2.632-8.17-9.169-13.309-13.865-19.833c-2.117-2.942-5.629-3.009-8.287-0.57c-2.438,2.238-2.229,5.898-0.418,7.966
			c3.451,3.94,7.896,6.99,11.682,10.663c3.615,3.507,6.982,7.278,10.333,11.046c2.085,2.344,1.804,8.635-0.591,9.927
			c-4.025,2.172-8.448,3.625-12.404,5.9c-6.039,3.473-13.336,4.206-18.705,9.247c-2.675,2.512-6.376,3.904-9.472,6.011
			C225.738,623.392,225.441,624.719,224.294,626.799z M-77.63,673.204c1.949-4.915-1.04-7.69-3.405-9.54
			c-8.111-6.338-14.387-13.975-20.16-22.501c-6.604-9.754-14.74-18.474-22.273-27.591c-1.422-1.72-2.901-3.58-4.758-4.717
			c-5.275-3.232-10.701-6.237-16.206-9.061c-1.193-0.611-2.968-0.089-4.475-0.089c-0.122,0.445-0.245,0.891-0.367,1.335
			c1.691,1.16,3.537,2.148,5.044,3.512c4.992,4.518,11.559,6.685,15.523,13.045c5.517,8.848,12.516,16.816,19.287,24.815
			c3.334,3.937,7.672,7.006,11.401,10.625C-91.387,659.474-84.869,666.03-77.63,673.204z M-138.874,466.988
			c0.612-0.076,1.225-0.152,1.837-0.228c0-1.326,0.176-2.68-0.027-3.975c-1.938-12.366-4.498-24.665-5.769-37.097
			c-1.351-13.21-1.384-26.55-2.229-39.817c-0.287-4.484-1.301-8.923-1.983-13.383c-0.685,0.115-1.37,0.229-2.055,0.345
			C-152.863,405.031-152.238,436.732-138.874,466.988z M-221.651,400.458c2.256,6.094,7.966,1.696,12.246,4.421
			c4.7,2.992,12.233,1.671,18.543,1.961c7.736,0.356,15.484,0.511,23.229,0.596c3.31,0.036,6.587-2.109,10.005-0.069
			c0.28,0.167,1.563-1.347,1.421-1.219c-1.594-3.246-3.089-5.638-3.976-8.237c-1.771-5.19-3.355-6.147-8.528-4.376
			c-2.766,0.947-5.518,1.936-8.253,2.966c-3.008,1.133-5.99,2.335-9.338,3.646c-1.907-0.368-4.704-1.041-7.54-1.409
			c-2.102-0.272-4.293-0.426-6.376-0.138c-3.414,0.472-6.984-2.719-10.407,0.916c-1.143,1.214-3.954,0.984-6.023,1.156
			C-218.278,400.808-219.941,400.546-221.651,400.458z M80.043,735.181c0,0.615,0,1.23-0.001,1.845
			c1.155,0.299,2.328,0.912,3.461,0.846c9.504-0.558,18.998-1.285,28.502-1.829c1.251-0.071,3.064,0.183,3.729,1.004
			c3.261,4.028,6.1,8.396,9.363,12.422c0.933,1.148,2.788,1.549,4.725,2.555c-0.729-5.834-0.785-10.876-2.106-15.562
			c-1.339-4.753-3.351-9.549-6.13-13.598c-2.804-4.084-7.12-6.877-12.197-7.138c-4.273,5.405,1.854,8.486,2.175,12.039
			C102.096,735.21,91.609,737.395,80.043,735.181z M279.024,479.204c-0.3,0.139,0.646-0.022,0.723-0.375
			c1.145-5.217,2.72-10.425,3.063-15.707c0.291-4.484-0.99-9.047-1.87-13.525c-0.161-0.823-0.796-1.649-1.417-2.271
			c-4.084-4.084-8.924-5.906-14.629-4.247c-9.173,2.667-18.282,5.556-27.462,8.198c-3.924,1.13-7.958,1.877-11.942,2.798
			c0.09,0.437,0.181,0.872,0.271,1.308c3.634-0.255,7.436,0.091,10.869-0.874c11.979-3.365,24.013-2.021,36.011-0.818
			c2.688,0.27,6.438,1.077,6.397,5.489C278.98,465.823,279.024,472.468,279.024,479.204z M-298.077,240.953
			c0.853-5.229,4.419-7.697,8.915-8.762c7.189-1.702,14.497-2.901,21.696-4.567c4.691-1.085,9.3-2.553,13.868-4.081
			c0.358-0.12,0.499-2.815,0.071-3.04c-2.275-1.196-4.789-1.928-7.176-2.928c-10.258-4.294-24.256,1.307-30.694,9.887
			c-2.955,3.938-6.146,7.696-9.212,11.514C-299.965,239.479-299.232,240.05-298.077,240.953z M-282.352,589.942
			c2.498,6.824,4.754,12.061,6.307,17.497c1.524,5.332,4.315,10.036,5.449,15.751c1.735,8.741,6.333,16.976,10.156,25.221
			c2.556,5.51,1.868,8.185-3.739,9.673c-5.677,1.506-10.111,4.474-12.565,10.266c5.911-1.248,11.756-2.627,17.032-5.183
			c2.919-1.415,5.16-4.032,5.448-8.51c0.381-5.923-2.293-10.384-4.383-15.215c-3.677-8.498-7.738-16.829-11.46-25.309
			c-3.113-7.092-5.931-14.313-9-21.426C-279.461,591.89-280.589,591.406-282.352,589.942z M-79.9,531.044
			c-0.147-0.503-0.294-1.006-0.441-1.509c-2.549,0.324-5.096,0.657-7.646,0.97c-8.052,0.985-16.088,2.152-24.164,2.86
			c-3.914,0.344-8.852,4.114-11.981-2.699c-0.206,3.21,0.301,5.863,1.003,8.464c1.814,6.726,6.869,9.003,13.047,5.935
			c4.662-2.314,9.258-4.77,13.979-6.955C-90.76,535.634-85.307,533.389-79.9,531.044z M-49.67,688.507
			c9.075,3.137,16.049,7.205,19.849,15.399c0.737,1.588,3.439,2.287,5.271,3.338c2.051,1.177,4.146,2.275,6.213,3.426
			c6.831,3.802,13.613,7.695,20.544,11.306c0.809,0.421,2.425-0.708,3.667-1.119c-0.69-1.108-1.133-2.651-2.131-3.218
			c-1.34-0.76-3.369-0.354-4.647-1.166c-4.899-3.115-9.608-6.53-14.416-9.793c-0.621-0.422-1.469-0.944-2.104-0.83
			c-2.154,0.389-2.186,0.503-2.476-0.595c-0.133-0.5,0.203-1.289-0.066-1.564c-3.292-3.367-6.807-6.527-9.966-10.012
			C-34.48,688.664-43.928,685.642-49.67,688.507z M240.925,520.332c-0.073-0.626-0.146-1.253-0.22-1.879
			c-6.857,0.373-14.272-0.739-20.405,1.563c-5.484,2.06-10.627,2.491-16.026,2.436c-8.231-0.084-16.314-0.816-24.362,2.458
			c-7.729,3.145-11.174,7.127-11.496,17.378c1.363-1.219,2.33-1.816,2.939-2.67c5.572-7.804,14.243-10.9,22.694-12.926
			c10.358-2.481,21.218-2.855,31.853-4.207C230.919,521.848,235.918,521.055,240.925,520.332z M286.264,546.934
			c6.128-6.883,11.258-13.029,10.881-22.135c-0.162-3.907,5.278-10.082,8.437-10.914c1.843,2.001,3.642,3.954,5.605,6.086
			c3.351-8.418,0.039-13.409-6.818-16.792c-4.837,1.971-8.845,5.336-9.272,11.1c-0.799,10.76-4.234,20.468-10.14,29.424
			C284.661,544.149,285.625,545.427,286.264,546.934z M298.514,448.953c0.253,0.78,0.506,1.56,0.758,2.339
			c8.692,1.491,16.254-2.729,23.374-5.545c2.002-3.662,3.541-7.537,6.001-10.695c2.734-3.511,5.914-7.018,9.652-9.289
			c2.611-1.587,7.092-2.545,7.338,3.521c0.047,1.153,1.635,2.243,2.764,3.683c2.444-7.169,1.253-11.64-2.777-12.429
			c-9.337-1.828-18.063,3.459-20.954,12.697c-2.715,8.676-8.187,12.35-17.359,12.664
			C304.347,446.001,301.444,447.885,298.514,448.953z M-303.13,439.515c-0.912-0.262-1.825-0.524-2.737-0.787
			c-3.044,9.777-6.145,19.537-9.052,29.354c-0.315,1.065,0.16,2.68,0.822,3.668c5.251,7.841,20.028,10.31,26.833,4.08
			c2.059-1.886,3.17-5.457,3.505-8.394c0.343-3.01-0.897-6.107-5.095-6.259c1.266,2.308,2.529,4.608,3.668,6.686
			c-3.571,5.657-9.244,3.438-13.769,4.48c-7.482,1.726-10.635-0.91-11.236-8.573c-0.19-2.424,0.524-5.02,1.273-7.396
			C-307.129,450.71-305.075,445.13-303.13,439.515z M-259.437,690.942c-4.27,0.967-3.86,3.978-3.174,7.271
			c2.568,12.328-2.528,20.549-14.542,23.114c-10.151,2.167-18.947,6.661-27.027,12.875c-4.325,3.325-8.533,6.805-12.794,10.214
			c3.806-1.218,7.51-2.964,11.272-4.574c5.202-2.226,8.057-7.605,12.691-10.072c6.221-3.311,13.322-4.984,20.074-7.274
			c7.987-2.709,18.881-10.418,16.852-21.534C-256.711,697.534-258.292,694.28-259.437,690.942z M169.774,668.505
			c10.366-0.349,8.817,10.024,15.063,12.772c0.33-0.698,1.052-1.479,0.921-2.069c-0.799-3.613-1.599-7.246-2.761-10.753
			c-2.093-6.319-3.331-12.504,1.154-18.344c1.492-1.941,3.147-3.759,4.728-5.633c-0.272-0.362-0.544-0.726-0.816-1.088
			c-5.191,3.386-11.395,5.916-15.226,10.45C170.182,656.983,170.794,662.888,169.774,668.505z M298.451,485.406
			c2.991,2.2,5.197,3.895,7.477,5.483c5.637,3.931,15.124,4.293,21.298-1.634c1.598-1.533,1.959-4.3,3.073-6.402
			c4.81-9.076,9.688-18.117,14.541-27.171c-0.31-0.379-0.62-0.758-0.931-1.137c-1.174,0.438-2.926,0.53-3.428,1.37
			c-2.989,5-5.928,10.061-8.425,15.318c-2.804,5.902-4.338,12.554-10.006,16.647c-2.381,1.72-4.959,4.287-8.106,1.069
			C310.153,485.074,306.21,481.688,298.451,485.406z M-282.386,326.098c-2.463,2.408-1.802,7.402-6.442,8.235
			c-0.583,5.97-1.837,11.971-1.549,17.898c0.254,5.223,4.029,9.236,7.441,12.483c6.263,0.503,5.383-3.582,4.534-6.959
			c-1.218-4.845-3.392-9.458-4.498-14.319c-0.976-4.291-4.165-9.172,1.765-12.78c0.987-0.6,1.213-2.451,1.827-3.806
			C-280.431,326.576-281.38,326.344-282.386,326.098z M-58.265,572.636c-0.231,0.557-0.462,1.112-0.693,1.669
			c1.682,1.251,3.412,2.441,5.035,3.765c4.359,3.556,9.088,6.786,12.863,10.889c2.615,2.842,4.894,4.518,8.906,4.65
			c10.116,0.334,20.215,1.206,30.319,1.882c3.196,0.214,6.388,0.49,9.581,0.738c0.064-0.652,0.13-1.305,0.194-1.957
			c-13.646-1.924-27.301-3.779-40.925-5.844c-2.086-0.316-4.337-1.211-5.976-2.512c-5.015-3.98-9.681-8.4-14.691-12.384
			C-54.738,572.667-56.704,572.905-58.265,572.636z M314.123,535.185c-3.094,4.544-2.385,8.904,0.557,13.689
			c1.388,2.256,2.754,6.134,1.732,7.849c-1.227,2.057-4.919,2.9-7.707,3.708c-3.709,1.075-8.437,0.496-11.181,2.623
			c-4.681,3.628-8.158,8.809-12.142,13.337c0.466,0.676,0.932,1.351,1.397,2.026c1.732-0.938,3.891-1.505,5.104-2.896
			c2.008-2.304,3.223-5.284,5.131-7.694c1.232-1.559,2.931-3.299,4.727-3.754c4.736-1.201,9.7-1.49,14.458-2.628
			c4.145-0.992,7.048-6.837,5.391-10.726C319.455,545.711,316.89,540.886,314.123,535.185z M-73.289,510.398
			c0.676-0.011,1.352-0.021,2.027-0.032c0.087-1.674,0.361-3.363,0.227-5.02c-0.597-7.354-1.419-14.69-1.951-22.048
			c-0.487-6.742-0.564-13.516-1.076-20.256c-1.014-13.368-2.132-26.729-3.416-40.074c-0.141-1.456-1.656-2.78-2.533-4.166
			c-0.459,0.194-0.917,0.389-1.375,0.584C-78.688,449.724-75.988,480.062-73.289,510.398z M47.416,599.78
			c-0.176,0.886-0.352,1.772-0.526,2.659c7.618,1.696,15.357,2.986,22.819,5.205c7.402,2.201,14.785,4.81,21.697,8.214
			c6.972,3.434,13.955,6.021,21.768,6.169C92.397,611.07,70.556,603.418,47.416,599.78z M169.555,578.326
			c-1.43,0.662-3.169,0.95-3.348,1.642c-0.744,2.871-1.583,5.935-1.233,8.785c0.184,1.497,2.78,3.856,4.233,3.818
			c3.977-0.106,8.044-0.901,11.853-2.12c4.922-1.575,9.689-3.692,14.4-5.845c2.277-1.04,4.275-2.695,6.399-4.071
			c-0.297-0.567-0.593-1.134-0.89-1.701c-7.144,2.478-14.339,4.815-21.416,7.471C171.967,589.149,170.22,586.18,169.555,578.326z
			 M-38.563,506.943c0.301-0.005,0.602-0.01,0.903-0.015c0.09-1.523,0.044-3.069,0.293-4.565c0.976-5.849,1.021-11.969-2.748-16.519
			c-6.507-7.855-13.828-15.054-21.083-22.251c-0.975-0.968-3.543-0.328-5.373-0.433c4.887,5.782,9.577,11.014,15.208,14.876
			c4.654,3.193,8.159,6.632,9.383,12.098C-40.731,495.713-39.694,501.339-38.563,506.943z M-129.43,586.389
			c-1.914-1.813-3.291-4.124-5.201-4.719c-4.187-1.303-5.17-3.656-3.695-7.361c1.141-2.864,2.598-5.603,3.913-8.396
			c-0.55-0.357-1.099-0.714-1.648-1.071c-1.575,2.195-2.904,4.631-4.773,6.538c-4.587,4.677-5.732,10.946-2.452,15.275
			C-140.191,590.739-137.639,590.807-129.43,586.389z M-5.729,663.227c1.059-4.746,0.723-9.538,2.956-11.915
			c4.432-4.717,10.662-7.265,17.48-6.746c7.384,0.562,14.741,1.468,22.11,2.224c-1.241-1.384-2.673-2.03-4.167-2.249
			c-4.475-0.653-8.979-1.089-13.459-1.712c-2.29-0.318-4.736-1.644-6.791-1.157c-8.657,2.05-17.666,3.887-22.082,13.1
			c-0.75,1.563-1.597,3.856-0.974,5.098C-9.921,661.332-7.637,662.018-5.729,663.227z M-290.607,450.811
			c0.512-0.988,0.988-1.997,1.543-2.961c2.021-3.508,8.55-6.5,11.579-5.346c4.387,1.671,5.322,5.386,5.457,9.453
			c0.126,3.833,0.027,7.674,0.027,11.512c1.447-2.362,1.893-4.744,2.042-7.145c0.145-2.345-0.26-4.736,0.003-7.06
			c1.011-8.916-7.424-15.349-16.429-11.019C-292.13,441.009-293.638,444.892-290.607,450.811z M147.763,794.407
			c-1.912,0.232-2.769,0.071-3.108,0.418c-4.697,4.797-9.419,9.577-13.937,14.541c-3.48,3.826-6.728,7.46-12.328,8.633
			c-3.129,0.655-6.35,3.001-8.526,5.469c-2.162,2.451-4.585,5.792-1.684,9.688c1.626-2.784,2.719-5.794,4.767-7.855
			c2.214-2.228,5.117-4.385,8.08-5.12c5.191-1.289,8.593-4.583,11.961-8.188c3.906-4.182,7.811-8.368,11.615-12.643
			C145.649,798.173,146.335,796.674,147.763,794.407z M-257.311,296.421c-0.534-0.049-1.067-0.098-1.601-0.146
			c-2.415,2.423-4.929,4.757-7.222,7.289c-3.612,3.99-7.092,8.101-10.587,12.194c-0.623,0.73-1.209,1.571-1.531,2.462
			c-0.502,1.389-0.763,2.865-1.126,4.304c1.499-0.548,3.411-0.686,4.427-1.712c5.607-5.659,11.199-11.364,16.32-17.454
			C-257.309,301.786-257.704,298.772-257.311,296.421z M-44.668,561.159c0.571,0.566,1.144,1.134,1.715,1.7
			c0.99-0.81,2.098-1.512,2.951-2.446c4.39-4.805,9.159-9.354,12.886-14.636c2.034-2.884,7.023-4.766,5.15-9.617
			c-1.572-4.07-3.681-7.935-5.552-11.891c-0.782,0.243-1.564,0.486-2.346,0.729c0.293,1.841,0.086,3.982,0.975,5.467
			c2.419,4.038,1.693,8.021-0.414,11.451c-2.913,4.741-6.575,9.032-10.041,13.419C-40.97,557.395-42.884,559.226-44.668,561.159z
			 M-290.341,667.602c-0.754,13.032,1.273,26.529-6.024,38.993c2.586-0.955,4.763-2.536,7.056-3.924
			c3.586-2.17,5.592-11.595,3.139-14.739c-0.807-1.034-1.642-2.271-1.842-3.516C-288.911,678.831-289.586,673.21-290.341,667.602z
			 M-271.36,492.976c0.136,1.562-0.188,3.079,0.415,3.974c8.213,12.216,15.658,18.802,28.118,18.459
			c-4.184-2.798-7.545-5.112-10.975-7.32c-3.405-2.191-6.88-4.276-10.39-6.449c0.811-0.925,1.29-1.471,1.166-1.329
			C-265.768,497.897-268.169,495.784-271.36,492.976z M-207.869,505.789c-5.988-11.848-29.443-27.216-34.675-24.487
			C-231.515,489.091-220.042,497.192-207.869,505.789z M55.103,588.389c1.492-0.852,2.986-1.174,3.342-1.99
			c2.638-6.068,5.128-12.206,7.416-18.413c0.241-0.654-0.928-2.358-1.801-2.728c-0.729-0.31-2.454,0.317-2.934,1.054
			C56.924,572.771,54.601,579.816,55.103,588.389z M-186.12,515.621c3.708,6.564,9.293,10.386,17.635,11.697
			c-2.931-3.702-4.855-7.593-7.974-9.775C-183.587,512.553-183.824,512.892-186.12,515.621z M-320.449,746.517
			c0.149-0.544,0.299-1.088,0.449-1.632c-8.345-3.574-8.345-3.574-6.082-16.793c-2.411,0.918-5.685,1.225-6.134,2.516
			c-1.215,3.489-2.82,7.988,0.853,10.771C-328.226,743.753-324.124,744.853-320.449,746.517z M-244.615,394.788
			c-0.083,0.505-0.165,1.009-0.248,1.513c5.603,1.533,11.206,3.065,16.808,4.599C-231.77,396.258-241.533,393.271-244.615,394.788z
			 M42.652,644.366c-0.227,0.474-0.454,0.946-0.681,1.419c9.145,3.767,18.289,7.532,27.434,11.298
			c0.188-0.477,0.378-0.952,0.567-1.429C60.866,651.892,51.759,648.129,42.652,644.366z M-276.762,492.939
			c-3.63-2.971-7.225-5.912-11.443-9.362c-0.13,1.55-0.931,3.517-0.271,4.571C-285.822,492.398-279.928,494.346-276.762,492.939z
			 M-97.072,561.241c0.481,0.036,0.963,0.073,1.445,0.109c1.316-3.449,3.558-6.854-0.576-11.561
			C-96.543,554.256-96.808,557.748-97.072,561.241z"/>
		<path fill-rule="evenodd" clip-rule="evenodd" d="M-386,535.5c0.627-1.927,1.357-3.827,1.861-5.786
			c1.157-4.501,1.897-9.133,3.367-13.524c2.361-7.059,3.919-14.905,8.2-20.639c3.354-4.491,5.892-10.298,10.229-13.367
			c5.31-3.758,8.396-9.382,13.749-12.999c6.574-4.442,12.364-10.046,18.973-14.666c-2.196,5.044-3.615,9.747-8.718,13.495
			c-12.162,8.932-24.592,17.906-32.874,31.146c-4.769,7.622-7.222,15.998-8.283,24.702c-1.255,10.296-2.056,20.679-2.386,31.046
			c-0.272,8.556,0.448,17.143,0.652,25.718c0.012,0.497-0.66,1.011-1.349,1.997c-1.216-6.087-2.318-11.604-3.42-17.122
			C-386,555.5-386,545.5-386,535.5z"/>
		<path fill-rule="evenodd" clip-rule="evenodd" d="M124,863.5c-4.439-1.309-9.215-1.999-11.942-6.463
			c-0.381-0.622-0.706-1.278-0.831-2.512c6.337,7.077,14.046,1.176,21.065,2.299c4.378,0.7,9.973-4.768,14.606-8.052
			c1.246-0.884,0.677-4.03,1.459-5.924c2.475-5.989,5.193-11.877,7.82-17.803c0.067-0.151,0.137-0.322,0.256-0.426
			c2.346-2.042,4.676-4.801,8.049-2.035c3.377,2.771,0.889,6.119-0.928,7.567c-5.613,4.475-7.91,10.571-11.126,16.626
			c-4.516,8.501-12.085,14.741-22.929,14.812c-1.504,0.01-3,1.242-4.5,1.909C124.667,863.5,124.333,863.5,124,863.5z"/>
		<path fill-rule="evenodd" clip-rule="evenodd" d="M-176.022,177.786c0.52-5.908,0.969-11.01,1.417-16.111
			c1.171-13.322,2.732-27.012-4.82-38.823c-2.282-3.569-8.841-5.173-13.734-6.061c-3.959-0.719-8.396,0.805-12.554,1.661
			c-7.382,1.521-12.445,6.624-17.233,11.92c-10.955,12.116-13.498,27.157-15.206,42.702c-1.146,10.437,0.397,20.175,4.796,29.436
			c2.32,4.884,6.854,6.617,12.238,8.418c8.304,2.778,14.829-1.356,21.933-2.779c4.03-0.807,7.476-4.527,11.606-7.209
			c0.298,1.28,0.568,1.867,0.548,2.443c-0.277,7.81-10.872,17.971-18.034,20.461c-6.536,2.272-12.305-0.01-18.253-0.317
			c-12.504-0.646-18.585-9.867-22.636-20.475c-6.126-16.039-3.994-31.823,2.322-47.246c5.469-13.354,13.381-25.279,24.164-34.824
			c7.891-6.985,17.837-10.124,28.461-9.747c5.194,0.185,10.451,1.095,15.496,2.391c7.086,1.82,9.915,7.664,11.44,14.159
			c2.788,11.866,2.494,23.522-1.8,35.153C-167.893,168.41-168.707,174.297-176.022,177.786z"/>
		<path fill-rule="evenodd" clip-rule="evenodd" d="M-302.221,244.518c-5.174,5.805-9.717,10.469-13.737,15.548
			c-3.332,4.21-6.244,8.79-8.988,13.417c-4.26,7.184-8.23,14.54-12.29,21.843c-0.378,0.682-0.699,1.492-0.73,2.256
			c-0.383,9.383-4.634,17.499-7.705,26.11c-2.45,6.867-2.971,15.062-2.013,22.36c1.537,11.714,5.006,23.174,7.65,34.743
			c0.142,0.622-0.016,1.5,0.352,1.844c0.717,0.669,1.709,1.043,2.588,1.539c-3.798,4.224,1.266,6.643,2.185,9.814
			c2.962,10.224,6.104,20.431,12.934,28.995c1.167,1.464,1.073,4.145,2.405,5.207c1.434,1.145,4.534,2.092,5.736,1.314
			c5.689-3.678,10.454-9.289,16.542-11.721c7.827-3.126,13.075-9.298,19.936-13.385c3.653-2.177,9.239-1.308,11.085,2.718
			c1.024,2.231,0.562,6.632-1.046,8.252c-2.74,2.761-6.72,4.704-10.522,5.912c-7.731,2.455-15.789,3.885-23.514,6.356
			c-3.766,1.204-7.375,3.427-10.528,5.869c-3.232,2.505-7.941,2.26-9.827-1.429c-3.498-6.844-7.096-13.65-10.221-20.665
			c-2.361-5.299-4.352-10.809-5.979-16.378c-3.866-13.227-7.603-26.498-11.039-39.842c-2.58-10.02-5.455-20.096-6.489-30.319
			c-0.438-4.337,0.768-9.647,4.124-14.232c4.936-6.743,7.907-14.89,12.427-21.983c6.15-9.653,12.967-18.882,19.512-28.282
			c0.932-1.34,1.881-2.677,2.931-3.924c3.259-3.867,6.494-7.762,9.937-11.461C-305.94,244.389-304.37,244.718-302.221,244.518z"/>
		<path fill-rule="evenodd" clip-rule="evenodd" d="M-382.938,747.534c1.375-11.199,2.674-21.692,3.949-32.189
			c1.483-12.209,2.944-24.421,4.415-36.632c0.724-0.135,1.448-0.27,2.172-0.404c0.801,1.521,2.094,2.971,2.326,4.574
			c1.803,12.447,3.343,24.934,5.118,37.386c0.317,2.223,1.349,4.344,2.129,6.754c-0.049,0.037-0.701,0.54-1.353,1.043
			c0.217,0.502,0.434,1.005,0.65,1.507c20.962-7.285,41.924-14.57,62.886-21.856c0.221,0.477,0.441,0.952,0.662,1.429
			c-7.504,3.451-14.768,7.634-22.562,10.207c-17.712,5.848-33.098,16.093-49.385,24.656
			C-375.476,745.872-379.088,749.078-382.938,747.534z"/>
		<path fill-rule="evenodd" clip-rule="evenodd" d="M201.147,790.551c4.915-9.877,10.088-19.452,14.461-29.379
			c2.414-5.481-0.446-9.366-6.359-9.585c-3.38-0.125-4.898-0.983-3.439-4.561c-10.421,1.65-20.641,3.536-28.996,9.737
			c-5.527,4.103-9.937,9.72-14.808,14.696c-2.862,2.925-5.322,6.386-8.602,8.704c-1.764,1.248-5.668-0.438-4.882,4.042
			c-0.83-0.401-2.319-0.712-2.389-1.218c-0.661-4.795-0.01-9.135,4.251-12.411c6.495-4.994,12.475-10.73,19.284-15.225
			c8.758-5.778,18.139-10.611,27.208-15.923c1.798-1.053,3.404-2.432,5.615-4.035c-7.798-10.099-15.488-20.214-17.996-32.94
			c0.556-0.302,1.111-0.604,1.666-0.906c1.94,3.774,4.135,7.442,5.768,11.346c3.48,8.322,8.661,15.193,16.202,20.188
			c3.855,2.553,4.367,8.379-1.123,13.83c2.78,0.531,5.438,0.924,8.036,1.559c6.094,1.49,8.561,6.057,7.474,12.082
			c-1.854,10.284-6.834,18.65-14.577,25.437C205.831,787.838,205.373,792.789,201.147,790.551z"/>
		<path fill-rule="evenodd" clip-rule="evenodd" d="M-82.226,316.43c-2.257-13.6-4.068-27.296-6.991-40.751
			c-1.157-5.332-3.932-10.885-7.542-14.937c-3.083-3.46-8.339-5.073-12.769-7.229c-15.551-7.569-30.938-15.451-45.126-25.392
			c-5.552-3.891-10.612-8.498-15.733-12.966c-0.625-0.546-0.233-2.257-0.361-4.155c5.851,2.172,11.44,3.72,16.538,6.255
			c9.157,4.555,17.969,9.797,27.024,14.567c5.256,2.77,10.797,5.003,16.025,7.821c3,1.617,5.563,4.023,8.441,5.893
			c6.672,4.331,11.685,10.649,14.52,17.48c3.077,7.413,3.455,15.995,4.66,24.118c0.833,5.615,1.209,11.311,1.532,16.985
			c0.234,4.112,0.046,8.249,0.046,12.375C-82.049,316.475-82.137,316.452-82.226,316.43z"/>
		<path fill-rule="evenodd" clip-rule="evenodd" d="M-121.805,645.473c-3.195,3.593-6.359,7.215-9.596,10.771
			c-5.187,5.7-9.986,11.875-15.838,16.79c-2.567,2.157-7.296,1.968-11.094,2.364c-3.486,0.365-7.041,0.104-10.565,0.086
			c-3.723-0.02-7.378,2.293-11.235,0.143c-0.593-0.33-2.078,0.94-2.576,2.152c-6.922,0.502-13.844,1.019-20.768,1.501
			c-5.994,0.418-11.99,1.017-17.987,1.045c-1.585,0.008-3.18-1.794-4.77-2.765c0.445-0.735,0.891-1.471,1.336-2.206
			c2.832-0.29,5.658-0.639,8.495-0.86c13.056-1.018,26.117-1.966,39.169-3.025c2.261-0.184,4.695-0.351,6.682-1.297
			c2.741-1.305,4.815-2.988,3.972-7.12c-1.354-6.639-1.682-13.489-2.356-20.259c-0.068-0.686,0.467-1.432,0.723-2.149
			c0.725,0.401,1.809,0.621,2.118,1.232c2.401,4.748,4.464,9.675,7.018,14.335c1.699,3.099,3.647,6.264,6.195,8.634
			c2.331,2.169,5.612,3.012,8.251-0.249c2.87-3.544,5.367-7.482,8.672-10.556c3.934-3.657,8.553-6.575,12.874-9.814
			C-122.658,644.641-122.23,645.057-121.805,645.473z"/>
		<path fill-rule="evenodd" clip-rule="evenodd" d="M224.294,626.799c1.147-2.08,1.444-3.407,2.265-3.966
			c3.096-2.106,6.797-3.499,9.472-6.011c5.369-5.041,12.666-5.774,18.705-9.247c3.956-2.275,8.379-3.729,12.404-5.9
			c2.395-1.292,2.676-7.583,0.591-9.927c-3.351-3.768-6.718-7.539-10.333-11.046c-3.786-3.673-8.23-6.723-11.682-10.663
			c-1.811-2.067-2.021-5.728,0.418-7.966c2.658-2.438,6.17-2.372,8.287,0.57c4.696,6.524,11.233,11.663,13.865,19.833
			c1.055,3.273,4.372,5.894,6.884,8.604c3.91,4.22,3.477,11.24-1.212,14.358c-6.425,4.274-12.892,7.909-20.755,9.817
			c-8.669,2.103-16.667,6.956-24.975,10.572C227.398,626.189,226.45,626.278,224.294,626.799z"/>
		<path fill-rule="evenodd" clip-rule="evenodd" d="M-77.63,673.204c-7.239-7.174-13.757-13.73-20.389-20.166
			c-3.729-3.619-8.067-6.688-11.401-10.625c-6.771-7.999-13.771-15.968-19.287-24.815c-3.965-6.36-10.531-8.527-15.523-13.045
			c-1.507-1.363-3.353-2.352-5.044-3.512c0.123-0.444,0.245-0.89,0.367-1.335c1.507,0,3.281-0.522,4.475,0.089
			c5.505,2.823,10.931,5.828,16.206,9.061c1.856,1.137,3.336,2.997,4.758,4.717c7.533,9.117,15.67,17.837,22.273,27.591
			c5.773,8.526,12.049,16.163,20.16,22.501C-78.67,665.514-75.681,668.289-77.63,673.204z"/>
		<path fill-rule="evenodd" clip-rule="evenodd" d="M-138.874,466.988c-13.364-30.256-13.989-61.957-10.227-94.154
			c0.685-0.115,1.37-0.229,2.055-0.345c0.682,4.46,1.696,8.898,1.983,13.383c0.846,13.268,0.879,26.607,2.229,39.817
			c1.271,12.432,3.831,24.73,5.769,37.097c0.203,1.295,0.027,2.648,0.027,3.975C-137.649,466.836-138.262,466.912-138.874,466.988z"
			/>
		<path fill-rule="evenodd" clip-rule="evenodd" d="M-221.651,400.458c1.71,0.088,3.373,0.35,5.002,0.214
			c2.07-0.172,4.881,0.058,6.023-1.156c3.423-3.635,6.993-0.444,10.407-0.916c2.083-0.288,4.275-0.135,6.376,0.138
			c2.836,0.368,5.633,1.041,7.54,1.409c3.349-1.312,6.331-2.514,9.338-3.646c2.735-1.03,5.487-2.019,8.253-2.966
			c5.173-1.771,6.757-0.814,8.528,4.376c0.887,2.6,2.382,4.991,3.976,8.237c0.142-0.128-1.141,1.386-1.421,1.219
			c-3.417-2.04-6.695,0.105-10.005,0.069c-7.745-0.085-15.493-0.239-23.229-0.596c-6.311-0.29-13.843,1.031-18.543-1.961
			C-213.685,402.154-219.395,406.552-221.651,400.458z"/>
		<path fill-rule="evenodd" clip-rule="evenodd" d="M80.043,735.181c11.566,2.214,22.053,0.029,31.521-7.417
			c-0.321-3.553-6.448-6.634-2.175-12.039c5.077,0.261,9.394,3.054,12.197,7.138c2.779,4.049,4.791,8.845,6.13,13.598
			c1.321,4.687,1.377,9.729,2.106,15.562c-1.937-1.006-3.792-1.406-4.725-2.555c-3.264-4.025-6.103-8.394-9.363-12.422
			c-0.665-0.821-2.479-1.075-3.729-1.004c-9.504,0.544-18.998,1.271-28.502,1.829c-1.133,0.066-2.306-0.547-3.461-0.846
			C80.043,736.411,80.043,735.796,80.043,735.181z"/>
		<path fill-rule="evenodd" clip-rule="evenodd" d="M279.024,479.204c0-6.736-0.044-13.381,0.015-20.024
			c0.04-4.412-3.709-5.22-6.397-5.489c-11.998-1.202-24.032-2.547-36.011,0.818c-3.434,0.965-7.235,0.619-10.869,0.874
			c-0.091-0.436-0.182-0.871-0.271-1.308c3.984-0.921,8.019-1.668,11.942-2.798c9.18-2.643,18.289-5.531,27.462-8.198
			c5.705-1.659,10.545,0.163,14.629,4.247c0.621,0.621,1.256,1.447,1.417,2.271c0.88,4.479,2.161,9.041,1.87,13.525
			c-0.344,5.282-1.919,10.49-3.063,15.707C279.67,479.182,278.725,479.343,279.024,479.204z"/>
		<path fill-rule="evenodd" clip-rule="evenodd" d="M-298.077,240.953c-1.156-0.903-1.888-1.475-2.532-1.978
			c3.066-3.817,6.258-7.576,9.212-11.514c6.438-8.58,20.436-14.181,30.694-9.887c2.387,1,4.9,1.731,7.176,2.928
			c0.428,0.225,0.287,2.92-0.071,3.04c-4.568,1.528-9.177,2.996-13.868,4.081c-7.199,1.666-14.507,2.865-21.696,4.567
			C-293.657,233.256-297.224,235.725-298.077,240.953z"/>
		<path fill-rule="evenodd" clip-rule="evenodd" d="M-282.352,589.942c1.762,1.464,2.891,1.947,3.244,2.766
			c3.069,7.112,5.887,14.334,9,21.426c3.722,8.479,7.783,16.811,11.46,25.309c2.09,4.831,4.765,9.292,4.383,15.215
			c-0.288,4.478-2.528,7.095-5.448,8.51c-5.275,2.556-11.121,3.935-17.032,5.183c2.454-5.792,6.888-8.76,12.565-10.266
			c5.607-1.488,6.295-4.163,3.739-9.673c-3.823-8.245-8.42-16.479-10.156-25.221c-1.134-5.715-3.925-10.419-5.449-15.751
			C-277.598,602.003-279.854,596.767-282.352,589.942z"/>
		<path fill-rule="evenodd" clip-rule="evenodd" d="M23.478,696.016c4.956,4.808,10.398,4.667,16.897,3.115
			c6.968-1.664,14.38-1.874,21.604-1.934c6.109-0.05,19.475-9.056,20.671-15.036c0.295-1.474-0.289-3.122-0.465-4.654
			c4.787,2.685,4.935,2.693,4.776,5.375c-0.181,3.086-0.613,6.162-1.051,9.226c-0.064,0.448-0.767,0.806-1.176,1.202
			c-6.522,6.305-13.818,10.388-23.388,10.012c-8.58-0.337-16.948-3.689-25.794-1.256c-2.656,0.73-6.125-0.479-8.896-1.601
			c-1.428-0.578-2.143-2.917-3.18-4.46L23.478,696.016z"/>
		<path fill-rule="evenodd" clip-rule="evenodd" d="M-79.9,531.044c-5.406,2.345-10.859,4.59-16.205,7.065
			c-4.721,2.186-9.316,4.641-13.979,6.955c-6.178,3.068-11.232,0.791-13.047-5.935c-0.702-2.601-1.209-5.254-1.003-8.464
			c3.13,6.813,8.067,3.043,11.981,2.699c8.076-0.708,16.112-1.875,24.164-2.86c2.551-0.312,5.098-0.646,7.646-0.97
			C-80.194,530.038-80.048,530.541-79.9,531.044z"/>
		<path fill-rule="evenodd" clip-rule="evenodd" d="M-49.67,688.507c5.742-2.865,15.189,0.157,19.736,5.172
			c3.159,3.484,6.674,6.645,9.966,10.012c0.27,0.275-0.066,1.064,0.066,1.564c0.29,1.098,0.321,0.983,2.476,0.595
			c0.636-0.114,1.483,0.408,2.104,0.83c4.808,3.263,9.517,6.678,14.416,9.793c1.278,0.812,3.308,0.406,4.647,1.166
			c0.998,0.566,1.44,2.109,2.131,3.218c-1.242,0.411-2.858,1.54-3.667,1.119c-6.931-3.61-13.713-7.504-20.544-11.306
			c-2.066-1.15-4.162-2.249-6.213-3.426c-1.831-1.051-4.533-1.75-5.271-3.338C-33.621,695.712-40.595,691.644-49.67,688.507z"/>
		<path fill-rule="evenodd" clip-rule="evenodd" d="M240.925,520.332c-5.007,0.723-10.006,1.516-15.023,2.153
			c-10.635,1.352-21.494,1.726-31.853,4.207c-8.451,2.025-17.122,5.122-22.694,12.926c-0.609,0.854-1.576,1.451-2.939,2.67
			c0.322-10.251,3.767-14.233,11.496-17.378c8.048-3.274,16.131-2.542,24.362-2.458c5.399,0.056,10.542-0.376,16.026-2.436
			c6.133-2.303,13.548-1.19,20.405-1.563C240.778,519.079,240.852,519.706,240.925,520.332z"/>
		<path fill-rule="evenodd" clip-rule="evenodd" d="M286.264,546.934c-0.639-1.507-1.603-2.784-1.308-3.231
			c5.905-8.956,9.341-18.664,10.14-29.424c0.428-5.764,4.436-9.129,9.272-11.1c6.857,3.383,10.169,8.374,6.818,16.792
			c-1.964-2.132-3.763-4.085-5.605-6.086c-3.158,0.832-8.599,7.007-8.437,10.914C297.521,533.904,292.392,540.051,286.264,546.934z"
			/>
		<path fill-rule="evenodd" clip-rule="evenodd" d="M298.514,448.953c2.931-1.068,5.833-2.952,8.796-3.055
			c9.173-0.314,14.645-3.988,17.359-12.664c2.891-9.238,11.617-14.525,20.954-12.697c4.03,0.789,5.222,5.26,2.777,12.429
			c-1.129-1.439-2.717-2.529-2.764-3.683c-0.246-6.065-4.727-5.107-7.338-3.521c-3.738,2.271-6.918,5.778-9.652,9.289
			c-2.46,3.158-3.999,7.033-6.001,10.695c-7.12,2.816-14.682,7.036-23.374,5.545C299.02,450.513,298.767,449.733,298.514,448.953z"
			/>
		<path fill-rule="evenodd" clip-rule="evenodd" d="M-303.13,439.515c-1.945,5.615-3.999,11.195-5.786,16.86
			c-0.749,2.376-1.463,4.972-1.273,7.396c0.601,7.663,3.753,10.299,11.236,8.573c4.524-1.043,10.197,1.177,13.769-4.48
			c-1.14-2.077-2.402-4.378-3.668-6.686c4.198,0.151,5.438,3.249,5.095,6.259c-0.334,2.937-1.446,6.508-3.505,8.394
			c-6.806,6.229-21.582,3.761-26.833-4.08c-0.663-0.988-1.138-2.603-0.822-3.668c2.907-9.817,6.007-19.577,9.052-29.354
			C-304.955,438.99-304.042,439.253-303.13,439.515z"/>
		<path fill-rule="evenodd" clip-rule="evenodd" d="M-259.437,690.942c1.145,3.338,2.726,6.592,3.352,10.02
			c2.029,11.116-8.865,18.825-16.852,21.534c-6.752,2.29-13.854,3.964-20.074,7.274c-4.634,2.467-7.49,7.847-12.691,10.072
			c-3.763,1.61-7.467,3.356-11.272,4.574c4.261-3.409,8.469-6.889,12.794-10.214c8.081-6.214,16.876-10.708,27.027-12.875
			c12.014-2.565,17.11-10.786,14.542-23.114C-263.297,694.92-263.707,691.909-259.437,690.942z"/>
		<path fill-rule="evenodd" clip-rule="evenodd" d="M138.576,476.135c-0.176,0.938-0.14,2.587-0.559,2.713
			c-11.542,3.449-17.981,12.312-24.15,21.799c-5.132,7.893-11.055,15.271-16.627,22.878c-0.48-0.203-0.96-0.405-1.439-0.607
			c1.075-3.173,1.715-6.588,3.314-9.47c3.701-6.669,7.614-13.252,11.902-19.556c6.646-9.769,16.661-14.574,27.685-17.644
			L138.576,476.135z"/>
		<path fill-rule="evenodd" clip-rule="evenodd" d="M169.774,668.505c1.02-5.617,0.407-11.521,3.063-14.664
			c3.831-4.534,10.034-7.064,15.226-10.45c0.272,0.362,0.544,0.726,0.816,1.088c-1.58,1.874-3.235,3.691-4.728,5.633
			c-4.485,5.84-3.247,12.024-1.154,18.344c1.162,3.507,1.962,7.14,2.761,10.753c0.131,0.591-0.591,1.371-0.921,2.069
			C178.592,678.529,180.141,668.156,169.774,668.505z"/>
		<path fill-rule="evenodd" clip-rule="evenodd" d="M298.451,485.406c7.759-3.718,11.702-0.332,15.493,3.545
			c3.147,3.218,5.726,0.65,8.106-1.069c5.668-4.094,7.202-10.745,10.006-16.647c2.497-5.258,5.436-10.318,8.425-15.318
			c0.502-0.84,2.254-0.933,3.428-1.37c0.311,0.379,0.621,0.758,0.931,1.137c-4.853,9.054-9.731,18.095-14.541,27.171
			c-1.114,2.103-1.476,4.869-3.073,6.402c-6.174,5.927-15.661,5.564-21.298,1.634C303.648,489.301,301.442,487.606,298.451,485.406z
			"/>
		<path fill-rule="evenodd" clip-rule="evenodd" d="M-282.386,326.098c1.006,0.246,1.955,0.479,3.078,0.753
			c-0.614,1.354-0.84,3.206-1.827,3.806c-5.93,3.608-2.741,8.489-1.765,12.78c1.106,4.861,3.28,9.475,4.498,14.319
			c0.849,3.377,1.729,7.462-4.534,6.959c-3.412-3.247-7.188-7.261-7.441-12.483c-0.288-5.928,0.966-11.929,1.549-17.898
			C-284.188,333.5-284.85,328.506-282.386,326.098z"/>
		<path fill-rule="evenodd" clip-rule="evenodd" d="M-58.265,572.636c1.561,0.27,3.526,0.031,4.614,0.896
			c5.011,3.983,9.677,8.403,14.691,12.384c1.639,1.301,3.89,2.195,5.976,2.512c13.624,2.064,27.279,3.92,40.925,5.844
			c-0.064,0.652-0.13,1.305-0.194,1.957c-3.193-0.248-6.385-0.524-9.581-0.738c-10.104-0.676-20.203-1.548-30.319-1.882
			c-4.013-0.133-6.291-1.809-8.906-4.65c-3.775-4.103-8.504-7.333-12.863-10.889c-1.623-1.323-3.354-2.514-5.035-3.765
			C-58.727,573.748-58.496,573.192-58.265,572.636z"/>
		<path fill-rule="evenodd" clip-rule="evenodd" d="M314.123,535.185c2.767,5.701,5.332,10.526,7.467,15.534
			c1.657,3.889-1.246,9.733-5.391,10.726c-4.758,1.138-9.722,1.427-14.458,2.628c-1.796,0.455-3.494,2.195-4.727,3.754
			c-1.908,2.41-3.123,5.391-5.131,7.694c-1.213,1.392-3.371,1.959-5.104,2.896c-0.466-0.676-0.932-1.351-1.397-2.026
			c3.983-4.528,7.461-9.709,12.142-13.337c2.744-2.127,7.472-1.548,11.181-2.623c2.788-0.808,6.48-1.651,7.707-3.708
			c1.021-1.715-0.345-5.593-1.732-7.849C311.738,544.089,311.029,539.729,314.123,535.185z"/>
		<path fill-rule="evenodd" clip-rule="evenodd" d="M-73.289,510.398c-2.699-30.337-5.398-60.675-8.098-91.012
			c0.458-0.195,0.916-0.39,1.375-0.584c0.877,1.386,2.393,2.71,2.533,4.166c1.284,13.345,2.402,26.706,3.416,40.074
			c0.512,6.74,0.589,13.514,1.076,20.256c0.532,7.357,1.354,14.694,1.951,22.048c0.135,1.656-0.14,3.346-0.227,5.02
			C-71.938,510.377-72.613,510.388-73.289,510.398z"/>
		<path fill-rule="evenodd" clip-rule="evenodd" d="M47.416,599.78c23.14,3.638,44.981,11.29,65.758,22.247
			c-7.812-0.147-14.796-2.735-21.768-6.169c-6.912-3.404-14.295-6.013-21.697-8.214c-7.462-2.219-15.201-3.509-22.819-5.205
			C47.064,601.553,47.24,600.666,47.416,599.78z"/>
		<path fill-rule="evenodd" clip-rule="evenodd" d="M169.555,578.326c0.665,7.854,2.412,10.823,9.999,7.979
			c7.077-2.655,14.272-4.993,21.416-7.471c0.297,0.567,0.593,1.134,0.89,1.701c-2.124,1.376-4.122,3.031-6.399,4.071
			c-4.711,2.152-9.479,4.27-14.4,5.845c-3.809,1.219-7.876,2.014-11.853,2.12c-1.453,0.038-4.05-2.321-4.233-3.818
			c-0.35-2.851,0.489-5.914,1.233-8.785C166.386,579.276,168.125,578.988,169.555,578.326z"/>
		<path fill-rule="evenodd" clip-rule="evenodd" d="M-38.563,506.943c-1.131-5.604-2.168-11.23-3.417-16.809
			c-1.224-5.466-4.729-8.904-9.383-12.098c-5.631-3.862-10.321-9.094-15.208-14.876c1.83,0.104,4.398-0.535,5.373,0.433
			c7.255,7.197,14.576,14.396,21.083,22.251c3.769,4.55,3.724,10.67,2.748,16.519c-0.249,1.496-0.203,3.042-0.293,4.565
			C-37.962,506.934-38.263,506.938-38.563,506.943z"/>
		<path fill-rule="evenodd" clip-rule="evenodd" d="M-129.43,586.389c-8.209,4.418-10.762,4.351-13.857,0.266
			c-3.28-4.329-2.135-10.599,2.452-15.275c1.869-1.907,3.198-4.343,4.773-6.538c0.55,0.357,1.099,0.714,1.648,1.071
			c-1.315,2.794-2.772,5.532-3.913,8.396c-1.475,3.705-0.491,6.059,3.695,7.361C-132.721,582.265-131.344,584.575-129.43,586.389z"
			/>
		<path fill-rule="evenodd" clip-rule="evenodd" d="M-5.729,663.227c-1.907-1.209-4.191-1.895-4.926-3.358
			c-0.623-1.241,0.224-3.534,0.974-5.098c4.416-9.213,13.425-11.05,22.082-13.1c2.055-0.486,4.501,0.839,6.791,1.157
			c4.479,0.623,8.984,1.059,13.459,1.712c1.494,0.219,2.926,0.865,4.167,2.249c-7.369-0.756-14.727-1.661-22.11-2.224
			c-6.818-0.519-13.049,2.029-17.48,6.746C-5.007,653.688-4.671,658.48-5.729,663.227z"/>
		<path fill-rule="evenodd" clip-rule="evenodd" d="M-290.611,450.808c-3.026-5.916-1.519-9.799,4.227-12.562
			c9.005-4.33,17.44,2.103,16.429,11.019c-0.264,2.323,0.141,4.715-0.003,7.06c-0.148,2.4-0.595,4.782-2.042,7.145
			c0-3.838,0.1-7.679-0.027-11.512c-0.135-4.067-1.07-7.782-5.457-9.453c-3.029-1.154-9.558,1.838-11.579,5.346
			C-289.619,448.813-290.095,449.822-290.611,450.808z"/>
		<path fill-rule="evenodd" clip-rule="evenodd" d="M147.763,794.407c-1.428,2.267-2.113,3.766-3.16,4.942
			c-3.805,4.274-7.709,8.461-11.615,12.643c-3.368,3.605-6.77,6.899-11.961,8.188c-2.963,0.735-5.866,2.893-8.08,5.12
			c-2.048,2.062-3.141,5.071-4.767,7.855c-2.901-3.896-0.479-7.237,1.684-9.688c2.177-2.468,5.397-4.813,8.526-5.469
			c5.601-1.173,8.848-4.807,12.328-8.633c4.518-4.964,9.239-9.744,13.937-14.541C144.994,794.479,145.851,794.64,147.763,794.407z"
			/>
		<path fill-rule="evenodd" clip-rule="evenodd" d="M-257.311,296.421c-0.394,2.352,0.001,5.365-1.32,6.937
			c-5.121,6.09-10.713,11.795-16.32,17.454c-1.016,1.026-2.928,1.164-4.427,1.712c0.363-1.438,0.624-2.915,1.126-4.304
			c0.322-0.891,0.908-1.731,1.531-2.462c3.495-4.094,6.975-8.204,10.587-12.194c2.293-2.532,4.807-4.866,7.222-7.289
			C-258.378,296.323-257.844,296.372-257.311,296.421z"/>
		<path fill-rule="evenodd" clip-rule="evenodd" d="M-44.668,561.159c1.784-1.934,3.698-3.765,5.324-5.823
			c3.466-4.387,7.128-8.678,10.041-13.419c2.107-3.43,2.833-7.413,0.414-11.451c-0.889-1.484-0.682-3.626-0.975-5.467
			c0.781-0.243,1.563-0.486,2.346-0.729c1.871,3.956,3.979,7.82,5.552,11.891c1.873,4.852-3.116,6.733-5.15,9.617
			c-3.727,5.281-8.496,9.831-12.886,14.636c-0.854,0.935-1.961,1.637-2.951,2.446C-43.524,562.293-44.097,561.726-44.668,561.159z"
			/>
		<path fill-rule="evenodd" clip-rule="evenodd" d="M-290.341,667.602c0.755,5.608,1.43,11.229,2.329,16.814
			c0.2,1.244,1.035,2.481,1.842,3.516c2.453,3.145,0.447,12.569-3.139,14.739c-2.293,1.388-4.469,2.969-7.056,3.924
			C-289.068,694.131-291.096,680.634-290.341,667.602z"/>
		<path fill-rule="evenodd" clip-rule="evenodd" d="M-271.36,492.976c3.191,2.809,5.592,4.922,8.333,7.334
			c0.125-0.142-0.354,0.404-1.166,1.329c3.51,2.173,6.984,4.258,10.39,6.449c3.43,2.208,6.791,4.522,10.975,7.32
			c-12.46,0.343-19.904-6.243-28.118-18.459C-271.547,496.055-271.224,494.537-271.36,492.976z"/>
		<path fill-rule="evenodd" clip-rule="evenodd" d="M-207.869,505.789c-12.173-8.597-23.646-16.698-34.675-24.487
			C-237.312,478.573-213.857,493.941-207.869,505.789z"/>
		<path fill-rule="evenodd" clip-rule="evenodd" d="M-233.053,536.479c0.685,4.104,1.726,8.187,1.973,12.316
			c0.382,6.397,3.353,10.861,8.761,13.991c0.958,0.554,1.713,1.458,2.17,3.222c-2.593-1.169-6.011-1.673-7.601-3.648
			c-2.976-3.701-5.536-8.037-7.054-12.52c-1.292-3.816-4.525-8.113-0.606-12.329c0.534-0.574,1.651-0.606,2.499-0.89
			L-233.053,536.479z"/>
		<path fill-rule="evenodd" clip-rule="evenodd" d="M55.103,588.389c-0.502-8.572,1.821-15.618,6.023-22.077
			c0.479-0.736,2.204-1.363,2.934-1.054c0.873,0.369,2.042,2.073,1.801,2.728c-2.288,6.207-4.778,12.345-7.416,18.413
			C58.089,587.215,56.595,587.537,55.103,588.389z"/>
		<path fill-rule="evenodd" clip-rule="evenodd" d="M-186.12,515.621c2.295-2.729,2.533-3.068,9.662,1.922
			c3.119,2.183,5.042,6.073,7.974,9.775C-176.827,526.007-182.412,522.186-186.12,515.621z"/>
		<path fill-rule="evenodd" clip-rule="evenodd" d="M138.702,476.248c2.538-1.514,5.016-3.142,7.625-4.52
			c8.254-4.355,17.24-5.946,26.666-6.187c-1.479,0.606-2.946,1.247-4.441,1.812c-5.384,2.033-10.694,4.319-16.194,5.972
			c-4.467,1.343-9.165,1.914-13.771,2.817C138.576,476.135,138.702,476.248,138.702,476.248z"/>
		<path fill-rule="evenodd" clip-rule="evenodd" d="M-320.449,746.517c-3.675-1.664-7.777-2.764-10.914-5.139
			c-3.673-2.782-2.068-7.281-0.853-10.771c0.449-1.291,3.723-1.598,6.134-2.516c-2.263,13.219-2.263,13.219,6.082,16.793
			C-320.149,745.429-320.299,745.973-320.449,746.517z"/>
		<path fill-rule="evenodd" clip-rule="evenodd" d="M23.477,696.005c-1.789,0.169-3.984,1.081-5.291,0.368
			c-4.059-2.217-8.82-3.983-9.279-10.34c2.982,2.101,5.949,4.224,8.952,6.294c1.845,1.271,3.744,2.462,5.619,3.688L23.477,696.005z"
			/>
		<path fill-rule="evenodd" clip-rule="evenodd" d="M-244.615,394.788c3.082-1.518,12.845,1.47,16.561,6.111
			c-5.603-1.533-11.205-3.065-16.808-4.599C-244.78,395.797-244.698,395.293-244.615,394.788z"/>
		<path fill-rule="evenodd" clip-rule="evenodd" d="M42.652,644.366c9.106,3.763,18.214,7.525,27.32,11.288
			c-0.189,0.477-0.379,0.952-0.567,1.429c-9.145-3.766-18.289-7.531-27.434-11.298C42.198,645.312,42.426,644.84,42.652,644.366z"/>
		<path fill-rule="evenodd" clip-rule="evenodd" d="M-276.762,492.939c-3.166,1.406-9.06-0.541-11.715-4.791
			c-0.659-1.055,0.142-3.021,0.271-4.571C-283.987,487.027-280.392,489.969-276.762,492.939z"/>
		<path fill-rule="evenodd" clip-rule="evenodd" d="M-97.072,561.241c0.265-3.493,0.529-6.985,0.869-11.451
			c4.134,4.707,1.893,8.111,0.576,11.561C-96.109,561.314-96.591,561.277-97.072,561.241z"/>
		<path fill-rule="evenodd" clip-rule="evenodd" d="M-232.911,536.621c0.067-4.934,2.293-6.619,9.168-6.881
			c-3.143,2.272-6.227,4.504-9.311,6.736C-233.053,536.479-232.911,536.621-232.911,536.621z"/>
	</g>
	<rect fill="#425873" width="122.5" height="309.399"/>
</g>
<g id="DO_xA0_Image_1_">
	<g>
		<path fill="#425873" d="M21,259.5c0-17.333,0-34.667,0-52c20,0,40,0,60,0c-4.667,7.929-9.322,15.864-14.019,23.776
			c-0.484,0.816-1.207,1.491-1.819,2.232c-0.574-0.487-1.581-0.914-1.658-1.471c-0.945-6.764-7.294-8.232-11.543-12.842
			c-1.379,2.779-3.678,5.287-3.137,6.734c1.407,3.77,4.06,7.074,6.375,10.822c-2.326,0.848-5.065,1.574-7.523,2.846
			c-1.426,0.737-2.999,2.198-3.361,3.625c-0.232,0.914,1.618,2.359,2.098,2.99c4.729-2.06,8.719-3.797,12.979-5.652
			c-2.28,8.501-4.394,16.045-6.272,23.647c-0.426,1.721-0.408,3.741,0.054,5.448c0.774,2.863,1.515,6.057,5.853,6.861
			c-0.318-2.83-0.588-5.229-0.859-7.638c10.928-0.698,13.531-2.467,12.188-9.057c-4.111,1.684-8.086,3.312-12.403,5.079
			c0.251-1.867,0.462-3.438,0.658-4.907c12.347-1.502,12.475-1.594,10.161-7.865c-3.326,1.304-6.648,2.604-10.795,4.229
			c0.307-1.822,0.137-3.266,0.766-4.12c2.842-3.861,5.839-7.615,8.917-11.293c3.021-3.611,6.185-5.869,11.556-3.663
			c2.525,1.037,6.279,0.021,9.121-1.028c1.478-0.545,2.182-3.185,3.217-4.848c-4.449-3.015-8.617-5.211-13.459-1.125
			c-0.988,0.833-2.846,0.634-5.693,1.175c8.369-5.361,16.102-9.282,19.021-17.938c-2.672-2.167-5.045-4.093-7.42-6.019
			c8.334,0,16.666,0,25,0c0,25.333,0,50.667,0,76c-15.164,2.625-23.757-0.025-28.744-1.604c1.213-2.503,3.41-5.038,3.548-7.682
			c0.483-9.222,0.313-18.481,0.269-27.726c-0.019-3.654-2.132-5.496-5.65-6.487c-3.4-0.958-6.109-0.968-8.32,2.174
			c-0.841,1.195-1.939,2.275-3.106,3.163c-3.461,2.63-2.466,4.428,0.974,6.108c1.828-1.939,3.578-3.797,5.718-6.066
			c0.604,7.877,1.157,15.06,1.61,20.963c-5.322,2.904-9.951,5.431-14.578,7.957c0.152,0.806,0.305,1.611,0.457,2.417
			c1.945,0,3.893,0.061,5.835-0.019c1.53-0.062,3.651-0.979,4.436-0.292c1.132,0.993,1.292,3.096,2.203,5.682
			c-6.774-1.074-12.149-1.883-17.5-2.837c-0.618-0.109-1.153-0.978-1.622-1.576c-2.424-3.089-4.748-6.258-7.24-9.291
			c-1.443-1.758-4.317-3.238-4.428-4.978c-0.148-2.354,1.719-4.846,2.758-7.263c0.52-1.203,1.572-2.37,1.574-3.555
			c0.002-1.45-0.65-4.036-1.357-4.156c-3.049-0.521-6.861-1.466-9.222-0.15C31.052,251.381,26.162,255.684,21,259.5z
			 M34.434,244.865c4.359-5.111,5.414-9.532,2.956-11.685c-4.997-4.376-10.913-4.343-15.79,0.549
			C25.805,237.379,29.986,241.007,34.434,244.865z"/>
		<path fill-rule="evenodd" clip-rule="evenodd" fill="#FFFFFF" d="M21,259.5c5.162-3.816,10.052-8.119,15.612-11.218
			c2.36-1.315,6.173-0.37,9.222,0.15c0.707,0.12,1.359,2.706,1.357,4.156c-0.002,1.185-1.055,2.352-1.574,3.555
			c-1.039,2.417-2.906,4.908-2.758,7.263c0.11,1.739,2.984,3.22,4.428,4.978c2.492,3.033,4.816,6.202,7.24,9.291
			c0.469,0.599,1.004,1.467,1.622,1.576c5.351,0.954,10.726,1.763,17.5,2.837c-0.911-2.586-1.071-4.688-2.203-5.682
			c-0.784-0.688-2.905,0.229-4.436,0.292c-1.942,0.079-3.89,0.019-5.835,0.019c-0.152-0.806-0.305-1.611-0.457-2.417
			c4.627-2.526,9.256-5.053,14.578-7.957c-0.453-5.903-1.006-13.086-1.61-20.963c-2.14,2.27-3.89,4.127-5.718,6.066
			c-3.439-1.681-4.435-3.479-0.974-6.108c1.167-0.888,2.266-1.968,3.106-3.163c2.211-3.142,4.92-3.132,8.32-2.174
			c3.519,0.991,5.632,2.833,5.65,6.487c0.045,9.244,0.215,18.504-0.269,27.726c-0.138,2.644-2.335,5.179-3.548,7.682
			c4.987,1.579,13.58,4.229,28.744,1.604c0,0.667,0,1.333,0,2c-6.172,3.238-12.387,6.401-18.479,9.783
			c-1.097,0.609-1.692,2.121-2.521,3.217c-1.334,0-2.666,0-4,0c-8.283-3.707-16.378-7.95-24.905-10.969
			c-8.331-2.949-17.26-4.347-25.091,1.51c-3.615,2.703-4.832,0.693-6.628-1.686c-2.442-3.235,0.136-4.405,2.289-5.618
			c2.302-1.297,4.731-2.367,7.105-3.535c3.245-1.596,4.035-4.201,2.796-7.405c-1.339-3.461-2.891-6.84-4.535-10.688
			c-4.102,4.719-8.926,4.969-14.031,1.391C21,260.833,21,260.167,21,259.5z"/>
		<path fill-rule="evenodd" clip-rule="evenodd" fill="#FFFFFF" d="M84,207.5c2.375,1.926,4.748,3.852,7.42,6.019
			c-2.92,8.656-10.652,12.577-19.021,17.938c2.848-0.541,4.705-0.342,5.693-1.175c4.842-4.086,9.01-1.89,13.459,1.125
			c-1.035,1.663-1.739,4.303-3.217,4.848c-2.842,1.049-6.596,2.065-9.121,1.028c-5.371-2.206-8.534,0.052-11.556,3.663
			c-3.078,3.678-6.075,7.432-8.917,11.293c-0.629,0.854-0.459,2.298-0.766,4.12c4.146-1.624,7.469-2.925,10.795-4.229
			c2.313,6.271,2.186,6.363-10.161,7.865c-0.196,1.47-0.407,3.04-0.658,4.907c4.317-1.768,8.292-3.396,12.403-5.079
			c1.344,6.59-1.26,8.358-12.188,9.057c0.271,2.408,0.541,4.808,0.859,7.638c-4.338-0.805-5.078-3.998-5.853-6.861
			c-0.462-1.707-0.479-3.728-0.054-5.448c1.879-7.603,3.992-15.146,6.272-23.647c-4.261,1.855-8.25,3.593-12.979,5.652
			c-0.479-0.631-2.33-2.076-2.098-2.99c0.362-1.427,1.936-2.888,3.361-3.625c2.458-1.271,5.197-1.998,7.523-2.846
			c-2.315-3.748-4.968-7.053-6.375-10.822c-0.541-1.447,1.758-3.955,3.137-6.734c4.249,4.609,10.598,6.078,11.543,12.842
			c0.077,0.557,1.084,0.983,1.658,1.471c0.612-0.741,1.335-1.416,1.819-2.232c4.696-7.912,9.352-15.848,14.019-23.776
			C82,207.5,83,207.5,84,207.5z"/>
		<path fill-rule="evenodd" clip-rule="evenodd" fill="#425873" d="M21,261.5c5.105,3.578,9.93,3.328,14.031-1.391
			c1.645,3.848,3.196,7.227,4.535,10.688c1.239,3.204,0.449,5.81-2.796,7.405c-2.374,1.168-4.804,2.238-7.105,3.535
			c-2.153,1.213-4.731,2.383-2.289,5.618c1.796,2.379,3.013,4.389,6.628,1.686c7.831-5.856,16.76-4.459,25.091-1.51
			C67.622,290.55,75.717,294.793,84,298.5c-20.896,0-41.791,0-63,0C21,286.168,21,273.834,21,261.5z"/>
		<path fill-rule="evenodd" clip-rule="evenodd" fill="#425873" d="M88,298.5c0.828-1.096,1.424-2.607,2.521-3.217
			c6.093-3.382,12.308-6.545,18.479-9.783c0,4.333,0,8.667,0,13C102,298.5,95,298.5,88,298.5z"/>
		<path fill-rule="evenodd" clip-rule="evenodd" fill="#FFFFFF" d="M34.434,244.865c-4.447-3.858-8.629-7.486-12.834-11.136
			c4.877-4.892,10.793-4.925,15.79-0.549C39.848,235.333,38.793,239.754,34.434,244.865z"/>
	</g>
</g>
<g id="KI_xA0_Image_1_">
	<g>
		<path fill="#425873" d="M25,150.5c0-16.88,0-33.759,0-51c6.328,0,12.664,0,19,0c-1.156,3.102-2.438,6.163-3.441,9.313
			c-2.037,6.381-5.957,12.551-3.258,19.602c0.651,1.701,2.523,3.649,4.177,4.043c1.528,0.363,3.935-0.774,5.21-2.016
			c2.455-2.387,4.514-4.797,8.437-3.11c0.751,0.323,2.006-0.066,2.847-0.489c4.214-2.12,8.367-4.359,12.66-6.62
			c-0.967-5.961-0.967-5.961-16.848-1.154c3.137-4.684,4.711-9.155,1.063-13.546c-1.782-2.146-3.888-4.023-5.847-6.022
			c15,0,30,0,45,0c0,29.667,0,59.333,0,89c-0.761-3.265-1.521-6.529-2.455-10.537c-1.083,1.702-1.518,3.238-2.493,3.758
			c-2.898,1.542-6.729,4.463-8.88,3.593c-3.801-1.538-7.917-4.875-9.628-8.525c-5.519-11.772,0.439-22.12,5.601-32.405
			c0.912-1.819,1.13-3.986,1.668-5.993c-2.532-0.591-5.396-2.252-7.541-1.59c-10.114,3.123-19.967,7.082-30.047,10.33
			C35.299,148.718,30.084,149.405,25,150.5z M38.149,138.775c3.376,3.068,6.425,5.101,10.761,2.438
			c3.432-2.107,7.35-3.425,11.051-5.095c2.057-0.929,4.113-1.859,6.346-2.869c-0.641-1.742-1.143-3.105-1.512-4.105
			C53.824,127.255,47.275,136.171,38.149,138.775z"/>
		<path fill-rule="evenodd" clip-rule="evenodd" fill="#FFFFFF" d="M25,150.5c5.084-1.095,10.299-1.782,15.225-3.37
			c10.08-3.248,19.933-7.207,30.047-10.33c2.146-0.662,5.009,0.999,7.541,1.59c-0.538,2.007-0.756,4.174-1.668,5.993
			c-5.161,10.285-11.119,20.633-5.601,32.405c1.711,3.65,5.827,6.987,9.628,8.525c2.15,0.87,5.981-2.051,8.88-3.593
			c0.976-0.52,1.41-2.056,2.493-3.758c0.934,4.008,1.694,7.272,2.455,10.537c0,2,0,4,0,6c-4.666,0-9.334,0-14,0
			c-12.142-7.939-16.266-19.525-15.092-33.446c0.508-6.002,1.242-11.984,1.936-18.57c-3.23,1.195-5.836,2.159-8.723,3.227
			c6.219,3.407,6.363,4.441,1.578,8.897c-1.928,1.797-3.881,3.568-5.43,4.99c1.526,1.183,2.959,2.292,4.393,3.401
			c-1.506,1.545-2.988,3.113-4.534,4.615c-0.333,0.322-0.882,0.489-1.36,0.586c-4.401,0.891-5.504,3.802-4.635,7.76
			c1.361,6.202,1.804,12.373-0.133,18.54c-0.666,0-1.334,0-2,0c-7.307-5.469-1.908-13.496-3.496-19.708
			c-2.734,1.45-5.047,3.162-7.631,3.836c-1.242,0.324-3.564-0.965-4.312-2.188c-0.471-0.771,0.678-3.292,1.781-4.117
			c3.01-2.251,6.381-4.019,8.74-5.451c-1.429-2.233-2.521-3.979-3.652-5.697c-0.824-1.25-1.432-2.986-2.607-3.594
			c-3.139-1.623-6.531-2.754-9.822-4.081C25,152.5,25,151.5,25,150.5z"/>
		<path fill-rule="evenodd" clip-rule="evenodd" fill="#425873" d="M48,194.5c1.937-6.167,1.494-12.338,0.133-18.54
			c-0.869-3.958,0.233-6.869,4.635-7.76c0.479-0.097,1.027-0.264,1.36-0.586c1.546-1.502,3.028-3.07,4.534-4.615
			c-1.434-1.109-2.866-2.219-4.393-3.401c1.549-1.422,3.502-3.193,5.43-4.99c4.785-4.456,4.641-5.49-1.578-8.897
			c2.887-1.067,5.492-2.031,8.723-3.227c-0.693,6.586-1.428,12.568-1.936,18.57C63.734,174.975,67.858,186.561,80,194.5
			C69.334,194.5,58.666,194.5,48,194.5z M64.87,186.299c-2.312-3.481-4.247-7.487-7.212-10.468c-1.891-1.899-5.62,0.271-4.542,2.411
			c1.931,3.837,1.415,9.462,6.743,11.254c0.854,0.287,2.062,0.721,2.639,0.353C63.323,189.321,63.719,188.118,64.87,186.299z"/>
		<path fill-rule="evenodd" clip-rule="evenodd" fill="#FFFFFF" d="M49,99.5c1.959,1.999,4.064,3.877,5.847,6.022
			c3.647,4.391,2.073,8.862-1.063,13.546c15.881-4.807,15.881-4.807,16.848,1.154c-4.293,2.261-8.446,4.5-12.66,6.62
			c-0.841,0.423-2.096,0.812-2.847,0.489c-3.923-1.687-5.981,0.724-8.437,3.11c-1.275,1.241-3.682,2.379-5.21,2.016
			c-1.653-0.394-3.525-2.342-4.177-4.043c-2.699-7.051,1.221-13.221,3.258-19.602c1.004-3.15,2.285-6.212,3.441-9.313
			C45.666,99.5,47.334,99.5,49,99.5z"/>
		<path fill-rule="evenodd" clip-rule="evenodd" fill="#425873" d="M25,153.5c3.291,1.327,6.684,2.458,9.822,4.081
			c1.176,0.607,1.783,2.344,2.607,3.594c1.132,1.719,2.224,3.464,3.652,5.697c-2.359,1.433-5.73,3.2-8.74,5.451
			c-1.104,0.825-2.252,3.347-1.781,4.117c0.748,1.223,3.07,2.512,4.312,2.188c2.584-0.674,4.896-2.386,7.631-3.836
			c1.588,6.212-3.811,14.239,3.496,19.708c-7,0-14,0-21,0C25,180.833,25,167.167,25,153.5z M39.176,182.312
			c-3.84,1.033-6.523,1.756-9.705,2.611c1.578,2.064,2.635,3.446,4.05,5.299C35.36,187.648,36.938,185.442,39.176,182.312z"/>
		<path fill-rule="evenodd" clip-rule="evenodd" fill="#FFFFFF" d="M38.149,138.775c9.126-2.604,15.675-11.521,26.646-9.631
			c0.369,1,0.871,2.363,1.512,4.105c-2.232,1.01-4.289,1.94-6.346,2.869c-3.701,1.67-7.619,2.987-11.051,5.095
			C44.574,143.876,41.525,141.844,38.149,138.775z"/>
		<path fill-rule="evenodd" clip-rule="evenodd" fill="#FFFFFF" d="M64.87,186.299c-1.151,1.819-1.547,3.022-2.372,3.55
			c-0.576,0.368-1.785-0.065-2.639-0.353c-5.328-1.792-4.812-7.417-6.743-11.254c-1.078-2.141,2.651-4.311,4.542-2.411
			C60.623,178.812,62.559,182.817,64.87,186.299z"/>
		<path fill-rule="evenodd" clip-rule="evenodd" fill="#FFFFFF" d="M39.176,182.312c-2.238,3.131-3.815,5.337-5.655,7.91
			c-1.415-1.853-2.472-3.234-4.05-5.299C32.652,184.067,35.336,183.345,39.176,182.312z"/>
	</g>
</g>
<g id="AI_xA0_Image_1_">
	<g>
		<path fill="#425873" d="M109,63.5c0,6.333,0,12.667,0,19c-21.334,0-42.666,0-64,0c5.572-6.709,11.846-8.703,19.735-3.587
			c1.414,0.917,4.825,0.82,5.944-0.246c3.839-3.66,7.069-7.96,10.482-11.957c-4.223-9.556-12.41-14.065-20.551-10.953
			c-5.076,1.94-9.958,4.464-14.74,7.067c-5.138,2.796-6.492,2.705-10.648-2.375c-0.195,2.332-1.021,4.508-0.393,6.118
			c2.111,5.42,4.739,10.638,7.17,15.933c-9.334,0-18.666,0-28,0c0-4.667,0-9.333,0-14c6.055-4.099,12.27-7.987,18.107-12.375
			c3.492-2.626,6.396-6.033,9.569-9.094c2.39,4.432,4.84,6.583,8.752,6.251c6.567-0.558,12.585-2.482,15.111-9.781
			c-7.216-7.106-14.226-0.423-22.667,1.749c4.543-5.956,8.092-10.608,12.39-16.244c5.439,5.716,10.544,11.126,15.701,16.486
			c5.407,5.618,10.85,11.202,16.304,16.774c3.537,3.613,7.981,3.62,12.521,2.931C102.873,64.728,105.931,64.072,109,63.5z"/>
		<path fill-rule="evenodd" clip-rule="evenodd" fill="#425873" d="M61,9.5c16,0,32,0,48,0c0,17.333,0,34.667,0,52
			c-19.971-8.656-34.465-24.035-49.675-39.555C65.576,18.005,64.336,13.814,61,9.5z"/>
		<path fill-rule="evenodd" clip-rule="evenodd" fill="#425873" d="M14,67.5c0-19.333,0-38.667,0-58c15.334,0,30.666,0,46,0
			c-8.594,1.068-8.1,9.92-11.406,14.95c-2.425,3.69-4.096,8.78-7.17,12.387C32.533,47.271,23.175,57.308,14,67.5z"/>
		<path fill-rule="evenodd" clip-rule="evenodd" fill="#FFFFFF" d="M14,67.5c9.175-10.192,18.533-20.229,27.424-30.663
			c3.074-3.606,4.745-8.696,7.17-12.387C51.9,19.42,51.406,10.568,60,9.5c0.334,0,0.666,0,1,0c3.336,4.314,4.576,8.505-1.675,12.445
			C74.535,37.465,89.029,52.844,109,61.5c0,0.667,0,1.333,0,2c-3.069,0.572-6.127,1.228-9.212,1.697
			c-4.539,0.689-8.983,0.683-12.521-2.931c-5.454-5.572-10.896-11.156-16.304-16.774c-5.157-5.36-10.262-10.771-15.701-16.486
			c-4.298,5.636-7.847,10.288-12.39,16.244c8.441-2.172,15.451-8.855,22.667-1.749c-2.526,7.299-8.544,9.224-15.111,9.781
			c-3.912,0.332-6.362-1.819-8.752-6.251c-3.173,3.061-6.077,6.468-9.569,9.094C26.27,60.513,20.055,64.401,14,68.5
			C14,68.167,14,67.833,14,67.5z"/>
		<path fill-rule="evenodd" clip-rule="evenodd" fill="#FFFFFF" d="M42,82.5c-2.431-5.295-5.059-10.513-7.17-15.933
			c-0.628-1.61,0.197-3.786,0.393-6.118c4.156,5.08,5.511,5.171,10.648,2.375c4.782-2.604,9.664-5.127,14.74-7.067
			c8.141-3.112,16.328,1.397,20.551,10.953c-3.413,3.997-6.644,8.297-10.482,11.957c-1.119,1.066-4.53,1.163-5.944,0.246
			C56.846,73.797,50.572,75.791,45,82.5C44,82.5,43,82.5,42,82.5z M64.156,63.568c-7.061,0.651-12.863,2.582-18.867,6.76
			C52.487,71.954,63.129,68.384,64.156,63.568z"/>
		<path fill-rule="evenodd" clip-rule="evenodd" fill="#425873" d="M64.156,63.568c-1.027,4.815-11.669,8.386-18.867,6.76
			C51.293,66.15,57.096,64.22,64.156,63.568z"/>
	</g>
</g>
</svg>
